<svg width="234.301" height="75.201" viewBox="0 0 234.301 75.201" xmlns="http://www.w3.org/2000/svg"><g id="svgGroup" stroke-linecap="round" fill-rule="evenodd" font-size="9pt" stroke="#000" stroke-width="0.25mm" fill="#616161" style="stroke:#000;stroke-width:0.25mm;fill:#616161"><path d="M 234.001 51.7 L 197.601 51.7 A 24.088 24.088 0 0 0 198.74 56.725 Q 200.076 60.538 202.701 63.1 Q 206.901 67.2 213.801 67.2 Q 218.301 67.2 221.901 66.25 Q 225.501 65.3 228.801 63.8 L 230.901 71.5 A 40.77 40.77 0 0 1 226.566 73.126 A 51.863 51.863 0 0 1 222.801 74.15 A 38.914 38.914 0 0 1 217.709 74.969 A 52.025 52.025 0 0 1 212.701 75.2 A 28.318 28.318 0 0 1 204.955 74.195 A 21.108 21.108 0 0 1 194.951 68.05 A 23.521 23.521 0 0 1 189.745 58.51 Q 188.401 53.845 188.401 48 A 35.359 35.359 0 0 1 189.233 40.178 A 28.84 28.84 0 0 1 191.351 34.05 A 24.642 24.642 0 0 1 196.367 26.968 A 22.887 22.887 0 0 1 199.601 24.35 A 21.048 21.048 0 0 1 209.86 20.878 A 26.205 26.205 0 0 1 211.901 20.8 Q 219.401 20.8 224.351 24.05 Q 229.301 27.3 231.801 32.8 A 28.185 28.185 0 0 1 234.227 42.664 A 33.434 33.434 0 0 1 234.301 44.9 A 75.204 75.204 0 0 1 234.01 51.597 A 69.426 69.426 0 0 1 234.001 51.7 Z M 39.401 23.9 L 36.701 31.5 A 30.422 30.422 0 0 0 33.796 30.224 A 23.42 23.42 0 0 0 31.351 29.45 A 20.543 20.543 0 0 0 28.308 28.924 A 26.355 26.355 0 0 0 25.701 28.8 A 15.889 15.889 0 0 0 18.448 30.443 A 16.132 16.132 0 0 0 13.951 33.85 Q 9.201 38.9 9.201 47.8 A 25.192 25.192 0 0 0 9.906 53.86 A 21.45 21.45 0 0 0 11.201 57.6 A 18.564 18.564 0 0 0 14.111 62.177 A 16.275 16.275 0 0 0 16.751 64.6 Q 20.301 67.2 25.101 67.2 Q 28.266 67.2 30.668 66.61 A 15.08 15.08 0 0 0 31.601 66.35 Q 34.29 65.503 37.376 63.912 A 49.095 49.095 0 0 0 37.401 63.9 L 40.201 71.5 Q 37.101 73.2 33.251 74.2 Q 29.401 75.2 24.501 75.2 A 26.803 26.803 0 0 1 17.462 74.31 A 22.074 22.074 0 0 1 11.551 71.75 Q 6.001 68.3 3.001 62.15 Q 0.001 56 0.001 48 Q 0.001 40.5 3.051 34.3 Q 6.101 28.1 11.801 24.45 A 23.067 23.067 0 0 1 21.469 21.029 A 29.608 29.608 0 0 1 25.201 20.8 Q 29.601 20.8 32.951 21.6 Q 36.301 22.4 39.401 23.9 Z M 148.501 23.9 L 145.801 31.5 A 30.422 30.422 0 0 0 142.896 30.224 A 23.42 23.42 0 0 0 140.451 29.45 A 20.543 20.543 0 0 0 137.408 28.924 A 26.355 26.355 0 0 0 134.801 28.8 A 15.889 15.889 0 0 0 127.548 30.443 A 16.132 16.132 0 0 0 123.051 33.85 Q 118.301 38.9 118.301 47.8 A 25.192 25.192 0 0 0 119.006 53.86 A 21.45 21.45 0 0 0 120.301 57.6 A 18.564 18.564 0 0 0 123.211 62.177 A 16.275 16.275 0 0 0 125.851 64.6 Q 129.401 67.2 134.201 67.2 Q 137.366 67.2 139.768 66.61 A 15.08 15.08 0 0 0 140.701 66.35 Q 143.39 65.503 146.476 63.912 A 49.095 49.095 0 0 0 146.501 63.9 L 149.301 71.5 Q 146.201 73.2 142.351 74.2 Q 138.501 75.2 133.601 75.2 A 26.803 26.803 0 0 1 126.562 74.31 A 22.074 22.074 0 0 1 120.651 71.75 Q 115.101 68.3 112.101 62.15 Q 109.101 56 109.101 48 Q 109.101 40.5 112.151 34.3 Q 115.201 28.1 120.901 24.45 A 23.067 23.067 0 0 1 130.569 21.029 A 29.608 29.608 0 0 1 134.301 20.8 Q 138.701 20.8 142.051 21.6 Q 145.401 22.4 148.501 23.9 Z M 158.301 57.7 L 158.301 0 L 167.301 0 L 167.301 56.8 A 20.644 20.644 0 0 0 167.489 59.688 Q 167.951 62.952 169.551 64.8 A 7.363 7.363 0 0 0 174.134 67.276 A 10.724 10.724 0 0 0 175.801 67.4 Q 177.701 67.4 179.551 66.95 A 22.192 22.192 0 0 0 181.014 66.544 Q 181.949 66.247 182.701 65.9 L 184.901 73.2 Q 183.501 73.822 181.589 74.323 A 34.978 34.978 0 0 1 180.451 74.6 A 23.816 23.816 0 0 1 177.295 75.085 A 30.514 30.514 0 0 1 174.601 75.2 A 20.862 20.862 0 0 1 169.71 74.646 A 17.544 17.544 0 0 1 166.301 73.45 A 12.683 12.683 0 0 1 160.976 68.685 A 15.856 15.856 0 0 1 160.451 67.8 Q 158.716 64.654 158.381 60.012 A 32.105 32.105 0 0 1 158.301 57.7 Z M 84.701 74 L 75.701 74 L 75.701 22 L 84.401 22 L 84.401 33.3 Q 85.701 30 87.901 27.15 Q 90.101 24.3 93.401 22.55 A 14.817 14.817 0 0 1 98.08 21.026 A 19.459 19.459 0 0 1 101.101 20.8 Q 102.601 20.8 104.101 20.95 A 18.972 18.972 0 0 1 105.155 21.084 Q 105.655 21.162 106.083 21.262 A 8.817 8.817 0 0 1 106.601 21.4 L 103.901 30.7 A 9.763 9.763 0 0 0 101.755 30.088 Q 100.66 29.9 99.401 29.9 A 12.958 12.958 0 0 0 92.771 31.746 A 15.609 15.609 0 0 0 92.351 32 Q 89.023 34.086 86.879 38.442 A 22.927 22.927 0 0 0 86.851 38.5 Q 85.088 42.107 84.77 47.328 A 39.09 39.09 0 0 0 84.701 49.7 L 84.701 74 Z M 59.701 74 L 50.701 74 L 50.701 22 L 59.701 22 L 59.701 74 Z M 197.501 44.4 L 226.001 44.4 A 24.355 24.355 0 0 0 225.596 39.815 Q 225.1 37.231 223.996 35.207 A 12.422 12.422 0 0 0 222.201 32.7 A 12.488 12.488 0 0 0 215.24 28.924 A 18.395 18.395 0 0 0 211.701 28.6 A 13.58 13.58 0 0 0 206.589 29.535 A 12.524 12.524 0 0 0 202.101 32.65 Q 198.301 36.7 197.501 44.4 Z M 50.838 11.288 A 5.973 5.973 0 0 0 55.201 13.1 A 8.175 8.175 0 0 0 56.697 12.969 A 5.647 5.647 0 0 0 59.801 11.35 Q 61.501 9.6 61.501 6.8 A 7.26 7.26 0 0 0 61.5 6.719 A 6.06 6.06 0 0 0 59.651 2.35 A 7.395 7.395 0 0 0 59.593 2.293 A 6.059 6.059 0 0 0 55.201 0.5 A 8.264 8.264 0 0 0 53.545 0.658 A 5.661 5.661 0 0 0 50.601 2.2 A 5.588 5.588 0 0 0 49.13 4.832 A 7.987 7.987 0 0 0 48.901 6.8 A 5.992 5.992 0 0 0 49.392 9.219 A 6.643 6.643 0 0 0 50.751 11.2 A 7.466 7.466 0 0 0 50.838 11.288 Z" vector-effect="non-scaling-stroke"/></g></svg>